<?xml version="1.0" encoding="UTF-8" standalone="no"?>
<!-- Created with Inkscape (http://www.inkscape.org/) -->

<svg
   width="62.797169mm"
   height="70.403297mm"
   viewBox="0 0 62.797169 70.403297"
   version="1.1"
   id="svg136896"
   inkscape:version="1.1 (c68e22c387, 2021-05-23)"
   sodipodi:docname="social.svg"
   xmlns:inkscape="http://www.inkscape.org/namespaces/inkscape"
   xmlns:sodipodi="http://sodipodi.sourceforge.net/DTD/sodipodi-0.dtd"
   xmlns="http://www.w3.org/2000/svg"
   xmlns:svg="http://www.w3.org/2000/svg">
  <sodipodi:namedview
     id="namedview136898"
     pagecolor="#ffffff"
     bordercolor="#666666"
     borderopacity="1.0"
     inkscape:pageshadow="2"
     inkscape:pageopacity="0.0"
     inkscape:pagecheckerboard="0"
     inkscape:document-units="mm"
     showgrid="false"
     fit-margin-top="8"
     fit-margin-left="8"
     fit-margin-right="8"
     fit-margin-bottom="8"
     inkscape:zoom="0.75722503"
     inkscape:cx="98.385549"
     inkscape:cy="134.04206"
     inkscape:window-width="1920"
     inkscape:window-height="1009"
     inkscape:window-x="1912"
     inkscape:window-y="-8"
     inkscape:window-maximized="1"
     inkscape:current-layer="layer1" />
  <defs
     id="defs136893">
    <clipPath
       clipPathUnits="userSpaceOnUse"
       id="clipPath854-4-8-9-1">
      <path
         d="m 132.966,476.396 h 67.065 v -103.97 h -67.065 z"
         id="path852-88-6-1-2" />
    </clipPath>
    <clipPath
       clipPathUnits="userSpaceOnUse"
       id="clipPath854-5-3-7-9-1">
      <path
         d="m 132.966,476.396 h 67.065 v -103.97 h -67.065 z"
         id="path852-6-7-9-3-7" />
    </clipPath>
    <clipPath
       clipPathUnits="userSpaceOnUse"
       id="clipPath914-0-9-7-1-7-0-1-2-6">
      <path
         d="m 219.272,476.806 h 84.177 v -84.664 h -84.177 z"
         id="path912-8-2-4-6-9-5-0-5-6" />
    </clipPath>
  </defs>
  <g
     inkscape:label="Capa 1"
     inkscape:groupmode="layer"
     id="layer1"
     transform="translate(-73.774352,-43.415998)">
    <g
       id="g117572-5-0-1"
       transform="translate(-38.721586,-98.141829)"
       inkscape:export-filename="D:\Santi\BEE Data SAS\BEE - Documentos\General\Imagen Corporativa\Submarcas\social.png"
       inkscape:export-xdpi="462.94284"
       inkscape:export-ydpi="462.94284">
      <g
         id="g7366-81-9-9-3"
         transform="matrix(0.35277777,0,0,-0.35277777,97.053864,318.80264)"
         style="fill:#f9b233;fill-opacity:1">
        <g
           id="g18582-37-1-9-0"
           transform="translate(178.5322,428.0293)"
           style="fill:#f9b233;fill-opacity:1">
          <g
             id="g840-05-9-1-6"
             transform="translate(-47.520997,51.689402)"
             style="fill:#f9b233;fill-opacity:1">
            <path
               d="M 0,0 C 0,0.042 0,0.039 0,0"
               style="fill:#f9b233;fill-opacity:1;fill-rule:nonzero;stroke:none"
               id="path842-8-5-8-2" />
          </g>
          <g
             id="g844-8-2-8-1"
             transform="translate(-47.522902,51.484899)"
             style="fill:#f9b233;fill-opacity:1">
            <path
               d="M 0,0 V 0 C 0.001,0.101 0.001,0.168 0.002,0.205 0.001,0.168 0.001,0.103 0,0"
               style="fill:#f9b233;fill-opacity:1;fill-rule:nonzero;stroke:none"
               id="path846-5-8-2-1" />
          </g>
          <g
             id="g848-8-3-7-3"
             transform="translate(-178.5322,-428.0293)"
             style="fill:#f9b233;fill-opacity:1">
            <g
               id="g850-33-3-4-7"
               style="fill:#f9b233;fill-opacity:1" />
            <g
               id="g862-8-6-1-4"
               style="fill:#f9b233;fill-opacity:1">
              <g
                 clip-path="url(#clipPath854-4-8-9-1)"
                 id="g860-60-7-7-4"
                 style="fill:#f9b233;fill-opacity:1">
                <g
                   transform="translate(198.9741,440.9326)"
                   id="g858-9-3-4-7"
                   style="fill:#f9b233;fill-opacity:1">
                  <path
                     d="M 0.02874133,0.02854499 -59.719,34.871 c -2.692,1.629 -6.322796,-0.397469 -6.348796,-3.543469 l -0.128,-15.348 c 0,-0.794046 0.894148,-2.65225 2.105148,-3.39625 l 42.606961,-24.6125 c 0.66,-0.389 0.825159,-0.81389 0.819159,-1.57989 l -0.05859,-46.036766 c -0.012,-1.45 0.646122,-2.749125 1.895122,-3.485125 l 13.269,-4.809 c 2.693,-1.584 5.65946412,0.316562 5.68546412,3.440562 V -1.867 c 0,1.49549221 0.0287413,1.74677937 -0.09772679,1.89554499"
                     style="fill:#f9b233;fill-opacity:1;fill-rule:nonzero;stroke:none"
                     id="path856-3-7-3-9"
                     sodipodi:nodetypes="ccccccccccccc" />
                </g>
              </g>
            </g>
          </g>
          <path
             d="m -0.217796,0.407135 20.786164,-12.933697 v -45.604313 c -0.017,-2.016 -1.648203,-2.667086 -3.554368,-1.960125 l -15.319,7.933 c -1.297,0.925 -2.01265875,2.412281 -1.99965875,4.005281 z"
             style="fill:#f9b233;fill-opacity:1;fill-rule:nonzero;stroke:none"
             id="path866-4-6-1-1"
             sodipodi:nodetypes="ccccccc" />
        </g>
        <g
           id="g840-3-7-7-2-1"
           transform="rotate(180,67.647699,162.783)"
           style="fill:#f9b233;fill-opacity:1">
          <path
             d="M 0,0 C 0,0.042 0,0.039 0,0"
             style="fill:#f9b233;fill-opacity:1;fill-rule:nonzero;stroke:none"
             id="path842-1-8-0-7-4" />
        </g>
        <g
           id="g844-3-0-2-2-2"
           transform="rotate(180,67.648651,162.88525)"
           style="fill:#f9b233;fill-opacity:1">
          <path
             d="M 0,0 V 0 C 0.001,0.101 0.001,0.168 0.002,0.205 0.001,0.168 0.001,0.103 0,0"
             style="fill:#f9b233;fill-opacity:1;fill-rule:nonzero;stroke:none"
             id="path846-0-6-3-3-5" />
        </g>
        <g
           id="g848-0-23-6-5-1"
           transform="rotate(180,133.1533,402.64235)"
           style="fill:#f9b233;fill-opacity:1">
          <g
             id="g850-3-7-7-8-6"
             style="fill:#f9b233;fill-opacity:1" />
          <g
             id="g862-0-0-0-5-9"
             style="fill:#f9b233;fill-opacity:1">
            <g
               clip-path="url(#clipPath854-5-3-7-9-1)"
               id="g860-6-7-4-8-3"
               style="fill:#f9b233;fill-opacity:1">
              <g
                 transform="translate(198.9741,440.9326)"
                 id="g858-0-2-1-0-6"
                 style="fill:#f9b233;fill-opacity:1">
                <path
                   d="M 0.06433689,-0.25363188 -60.166349,34.333878 c -2.692,1.629 -5.253455,1.338928 -5.279455,-1.807072 V 16.085 c -0.013,-1.421 0.885728,-2.447689 2.096728,-3.191689 L -20.337986,-12.205 c 0.66,-0.389 0.411454,-1.267877 0.4386,-2.829372 l 0.281743,-44.642638 c -0.012,-1.45 -0.459351,-2.71799 0.789649,-3.45399 l 13.269,-4.809 c 2.693,-1.584 6.4153615,0.34 6.4413615,3.464 v 62.604146 c 0.006,0.766 -0.15803061,1.22922212 -0.81803061,1.61822212"
                   style="fill:#f9b233;fill-opacity:1;fill-rule:nonzero;stroke:none"
                   id="path856-8-5-2-1-1"
                   sodipodi:nodetypes="ccccccccccccc" />
              </g>
            </g>
          </g>
        </g>
        <path
           d="m 87.240365,376.89272 -20.790233,13.46998 -2e-6,45.159 c 0.017,2.016 2.404099,2.53166 4.310264,1.8247 l 15.319,-7.933 c 1.297,-0.925 1.173965,-2.47373 1.160965,-4.06673 z"
           style="fill:#f9b233;fill-opacity:1;fill-rule:nonzero;stroke:none"
           id="path866-9-3-1-7-6"
           sodipodi:nodetypes="ccccccc" />
        <g
           id="g868-4-9-9-3"
           transform="translate(135.2954,325.5654)"
           style="fill:#f9b233;fill-opacity:1">
          <path
             d="M 0,0 C 0,-0.042 0,-0.039 0,0"
             style="fill:#f9b233;fill-opacity:1;fill-rule:nonzero;stroke:none"
             id="path870-06-4-9-0" />
        </g>
        <g
           id="g872-8-2-9-8"
           transform="translate(135.2974,325.77)"
           style="fill:#f9b233;fill-opacity:1">
          <path
             d="M 0,0 V 0 C -0.001,-0.101 -0.001,-0.168 -0.002,-0.205 -0.001,-0.168 -0.001,-0.103 0,0"
             style="fill:#f9b233;fill-opacity:1;fill-rule:nonzero;stroke:none"
             id="path874-2-9-4-8" />
        </g>
      </g>
      <path
         style="fill:#ffffff;fill-opacity:1;stroke:none;stroke-width:0.241602px;stroke-linecap:butt;stroke-linejoin:miter;stroke-opacity:1"
         d="m 143.89832,201.27036 -21.36665,-12.32053 v -24.36978 h 0.003 l 21.36376,-12.33146 21.35874,12.33146 -0.0419,24.36875 z"
         id="path1277-9-85-1-0-8"
         sodipodi:nodetypes="cccccccc" />
      <text
         xml:space="preserve"
         style="font-style:normal;font-variant:normal;font-weight:600;font-stretch:normal;font-size:14.6342px;line-height:1.25;font-family:'Antipasto Pro';-inkscape-font-specification:'Antipasto Pro, Semi-Bold';font-variant-ligatures:normal;font-variant-caps:normal;font-variant-numeric:normal;font-variant-east-asian:normal;fill:#f9b233;fill-opacity:1;stroke:none;stroke-width:0.40602"
         x="125.46262"
         y="181.64"
         id="text2220-6-78-8-0-0"><tspan
           sodipodi:role="line"
           id="tspan2218-1-3-4-9-9"
           style="font-style:normal;font-variant:normal;font-weight:600;font-stretch:normal;font-size:15.2994px;font-family:'Antipasto Pro';-inkscape-font-specification:'Antipasto Pro, Semi-Bold';font-variant-ligatures:normal;font-variant-caps:normal;font-variant-numeric:normal;font-variant-east-asian:normal;fill:#f9b233;fill-opacity:1;stroke-width:0.40602"
           x="125.46262"
           y="181.64">Social</tspan></text>
    </g>
    <g
       id="g1402-5-4-9-2"
       transform="matrix(0.17547733,0,0,-0.17547733,72.539954,77.770079)"
       inkscape:export-filename="D:\Santi\BEE Data SAS\BEE - Documentos\General\Imagen Corporativa\Submarcas\social.png"
       inkscape:export-xdpi="462.94284"
       inkscape:export-ydpi="462.94284">
      <g
         id="g900-4-6-9-1-7-3-4-8-6"
         transform="matrix(0.24866134,0,0,0.24866134,184.77132,74.118377)"
         style="fill:#00b3ff;fill-opacity:1">
        <path
           d="m 0,0 c -0.998,0.136 -1.996,0.205 -2.994,0.205 -6.577,0 -11.748,-2.813 -15.513,-8.438 -1.951,-2.813 -3.016,-5.965 -3.198,-9.457 L 10.07,-4.831 C 7.121,-2.109 3.765,-0.499 0,0 m -13.336,-34.632 c 2.902,-1.997 6.192,-3.085 9.866,-3.266 h 0.612 c 3.402,0 6.577,0.816 9.526,2.45 2.085,1.224 4.332,3.402 6.736,6.531 1.224,1.905 2.925,3.129 5.103,3.674 0.635,0.181 1.269,0.272 1.905,0.272 1.542,0 2.971,-0.408 4.287,-1.224 1.904,-1.18 3.106,-2.858 3.605,-5.035 0.136,-0.727 0.205,-1.407 0.205,-2.041 0,-1.497 -0.408,-2.903 -1.225,-4.219 -4.4,-5.807 -8.597,-9.843 -12.588,-12.111 -5.306,-2.993 -10.977,-4.491 -17.009,-4.491 -1.725,0 -3.448,0.091 -5.171,0.272 -7.939,1.089 -14.697,4.423 -20.276,10.002 -3.085,3.085 -5.535,6.645 -7.349,10.683 -0.136,0.317 -0.272,0.635 -0.408,0.952 -0.136,0.363 -0.272,0.725 -0.408,1.089 -1.452,4.127 -2.178,8.233 -2.178,12.315 0,4.627 0.93,9.185 2.79,13.676 2.722,6.532 7.076,11.726 13.064,15.582 5.76,3.673 12.27,5.691 19.527,6.055 h 1.225 c 6.396,0 12.452,-1.973 18.166,-5.92 5.716,-3.946 10.071,-9.14 13.064,-15.581 0.045,-0.182 0.137,-0.363 0.272,-0.544 0,-0.092 0.023,-0.159 0.068,-0.204 v -0.137 l 0.069,-0.067 v -0.205 c 0.045,-0.045 0.068,-0.091 0.068,-0.135 v -0.069 c 0.09,-0.091 0.136,-0.159 0.136,-0.204 v -0.135 c 0.044,-0.046 0.068,-0.137 0.068,-0.272 v -0.137 h 0.068 v -0.408 c 0.045,-0.182 0.068,-0.318 0.068,-0.409 V -9.525 C 30.504,-9.571 30.482,-9.64 30.482,-9.729 v -0.409 c -0.046,-0.136 -0.092,-0.295 -0.136,-0.476 v -0.069 c 0,-0.046 -0.046,-0.09 -0.136,-0.135 v -0.205 c -0.046,-0.045 -0.068,-0.113 -0.068,-0.204 l -0.069,-0.203 c 0,-0.046 -0.023,-0.092 -0.068,-0.137 0,-0.045 -0.023,-0.114 -0.067,-0.204 l -0.137,-0.136 v -0.068 l -0.068,-0.204 -0.068,-0.136 -0.067,-0.136 -0.069,-0.204 c 0,-0.046 -0.046,-0.092 -0.136,-0.136 0,-0.046 -0.023,-0.114 -0.068,-0.205 -0.045,-0.046 -0.091,-0.091 -0.136,-0.135 l -0.068,-0.137 -0.204,-0.204 -0.068,-0.136 -0.137,-0.204 c 0,-0.045 -0.045,-0.091 -0.135,-0.136 -0.092,-0.092 -0.16,-0.182 -0.204,-0.272 l -0.205,-0.136 c -0.045,-0.046 -0.091,-0.092 -0.136,-0.136 l -0.068,-0.136 -0.068,-0.069 -0.136,-0.068 c -0.046,-0.046 -0.092,-0.091 -0.136,-0.135 l -0.136,-0.137 c -0.092,-0.046 -0.159,-0.091 -0.204,-0.135 -0.091,-0.046 -0.204,-0.137 -0.341,-0.273 l -0.135,-0.068 c -0.046,-0.046 -0.092,-0.068 -0.137,-0.068 -0.091,-0.045 -0.181,-0.068 -0.272,-0.068 v -0.068 l -0.136,-0.136 c -0.091,0 -0.159,-0.024 -0.204,-0.068 -0.045,-0.046 -0.091,-0.068 -0.136,-0.068 -0.046,-0.046 -0.136,-0.069 -0.272,-0.069 -0.046,-0.045 -0.091,-0.067 -0.136,-0.067 l -41.164,-16.738 c 0.725,-0.68 1.497,-1.27 2.313,-1.769"
           style="fill:#00b3ff;fill-opacity:1;fill-rule:nonzero;stroke:none"
           id="path902-2-3-80-8-3-5-9-7-6" />
      </g>
      <g
         id="g904-91-3-7-8-9-6-1-6-1"
         transform="matrix(0.24866134,0,0,0.24866134,202.31589,74.118377)"
         style="fill:#00b3ff;fill-opacity:1">
        <path
           d="m 0,0 c -0.998,0.136 -1.997,0.205 -2.994,0.205 -6.577,0 -11.748,-2.813 -15.513,-8.438 -1.951,-2.813 -3.017,-5.965 -3.198,-9.457 L 10.07,-4.831 C 7.121,-2.109 3.765,-0.499 0,0 m -13.336,-34.632 c 2.902,-1.997 6.192,-3.085 9.866,-3.266 h 0.612 c 3.402,0 6.577,0.816 9.526,2.45 2.085,1.224 4.331,3.402 6.736,6.531 1.224,1.905 2.925,3.129 5.103,3.674 0.634,0.181 1.269,0.272 1.905,0.272 1.542,0 2.97,-0.408 4.286,-1.224 1.905,-1.18 3.107,-2.858 3.606,-5.035 0.136,-0.727 0.205,-1.407 0.205,-2.041 0,-1.497 -0.409,-2.903 -1.225,-4.219 -4.401,-5.807 -8.597,-9.843 -12.588,-12.111 -5.306,-2.993 -10.977,-4.491 -17.009,-4.491 -1.725,0 -3.448,0.091 -5.171,0.272 -7.939,1.089 -14.697,4.423 -20.276,10.002 -3.085,3.085 -5.535,6.645 -7.349,10.683 -0.136,0.317 -0.272,0.635 -0.408,0.952 -0.136,0.363 -0.273,0.725 -0.408,1.089 -1.452,4.127 -2.178,8.233 -2.178,12.315 0,4.627 0.93,9.185 2.79,13.676 2.722,6.532 7.076,11.726 13.064,15.582 5.76,3.673 12.27,5.691 19.527,6.055 h 1.224 c 6.397,0 12.452,-1.973 18.167,-5.92 5.716,-3.946 10.07,-9.14 13.064,-15.581 0.045,-0.182 0.137,-0.363 0.272,-0.544 0,-0.092 0.022,-0.159 0.068,-0.204 v -0.137 l 0.069,-0.067 v -0.205 c 0.045,-0.045 0.067,-0.091 0.067,-0.135 v -0.069 c 0.091,-0.091 0.137,-0.159 0.137,-0.204 v -0.135 c 0.044,-0.046 0.068,-0.137 0.068,-0.272 v -0.137 h 0.067 v -0.408 c 0.045,-0.182 0.069,-0.318 0.069,-0.409 V -9.525 C 30.504,-9.571 30.481,-9.64 30.481,-9.729 v -0.409 c -0.045,-0.136 -0.091,-0.295 -0.135,-0.476 v -0.069 c 0,-0.046 -0.046,-0.09 -0.137,-0.135 v -0.205 c -0.045,-0.045 -0.067,-0.113 -0.067,-0.204 l -0.069,-0.203 c 0,-0.046 -0.023,-0.092 -0.068,-0.137 0,-0.045 -0.024,-0.114 -0.068,-0.204 l -0.136,-0.136 v -0.068 l -0.068,-0.204 -0.068,-0.136 -0.067,-0.136 -0.069,-0.204 c 0,-0.046 -0.046,-0.092 -0.136,-0.136 0,-0.046 -0.023,-0.114 -0.068,-0.205 -0.045,-0.046 -0.091,-0.091 -0.136,-0.135 l -0.068,-0.137 -0.204,-0.204 -0.068,-0.136 -0.137,-0.204 c 0,-0.045 -0.045,-0.091 -0.135,-0.136 -0.092,-0.092 -0.16,-0.182 -0.205,-0.272 l -0.204,-0.136 c -0.045,-0.046 -0.091,-0.092 -0.136,-0.136 l -0.068,-0.136 -0.068,-0.069 -0.136,-0.068 c -0.046,-0.046 -0.092,-0.091 -0.136,-0.135 l -0.136,-0.137 c -0.092,-0.046 -0.16,-0.091 -0.204,-0.135 -0.091,-0.046 -0.204,-0.137 -0.341,-0.273 l -0.135,-0.068 c -0.046,-0.046 -0.092,-0.068 -0.137,-0.068 -0.091,-0.045 -0.181,-0.068 -0.272,-0.068 v -0.068 l -0.136,-0.136 c -0.091,0 -0.159,-0.024 -0.204,-0.068 -0.046,-0.046 -0.091,-0.068 -0.136,-0.068 -0.046,-0.046 -0.136,-0.069 -0.272,-0.069 -0.046,-0.045 -0.092,-0.067 -0.136,-0.067 l -41.164,-16.738 c 0.724,-0.68 1.496,-1.27 2.313,-1.769"
           style="fill:#00b3ff;fill-opacity:1;fill-rule:nonzero;stroke:none"
           id="path906-5-6-1-5-0-4-5-4-2" />
      </g>
      <g
         id="g908-5-8-7-6-0-9-9-7-2"
         transform="matrix(0.24866134,0,0,0.24866134,95.946283,-30.191517)"
         style="fill:#00b3ff;fill-opacity:1">
        <g
           id="g910-6-0-6-5-1-5-3-5-1"
           style="fill:#00b3ff;fill-opacity:1" />
        <g
           id="g922-4-8-3-1-8-9-2-4-3"
           style="fill:#00b3ff;fill-opacity:1">
          <g
             clip-path="url(#clipPath914-0-9-7-1-7-0-1-2-6)"
             id="g920-9-7-7-6-6-9-8-8-3"
             style="fill:#00b3ff;fill-opacity:1">
            <g
               transform="translate(264.5835,476.6553)"
               id="g918-8-5-8-1-3-6-6-8-1"
               style="fill:#00b3ff;fill-opacity:1">
              <path
                 d="m 0,0 v 0.15 h -34.94 v -0.159 c -5.76,-0.199 -10.372,-4.915 -10.372,-10.722 0,-5.891 4.742,-10.668 10.615,-10.738 v 0.016 H -0.439 C 9.7,-22.911 17.5,-31.608 17.5,-42.151 17.5,-53.714 8.126,-63.087 -3.437,-63.087 h -19.656 c -0.378,0.04 -0.761,0.063 -1.15,0.063 -5.934,0 -10.745,-4.81 -10.745,-10.745 0,-5.934 4.811,-10.744 10.745,-10.744 0.38,0 0.756,0.021 1.126,0.06 h 19.68 c 23.363,0 42.303,18.939 42.303,42.302 C 38.866,-19.947 21.754,-1.75 0,0"
                 style="fill:#00b3ff;fill-opacity:1;fill-rule:nonzero;stroke:none"
                 id="path916-7-5-6-1-7-3-2-2-8" />
            </g>
          </g>
        </g>
      </g>
      <g
         id="g924-1-3-0-1-7-4-5-8-6"
         transform="matrix(0.24866134,0,0,0.24866134,164.87839,72.662497)"
         style="fill:#00b3ff;fill-opacity:1">
        <path
           d="m 0,0 h -37.002 v -0.007 c -5.874,-0.07 -10.615,-4.847 -10.615,-10.737 0,-5.89 4.741,-10.668 10.615,-10.738 v -0.006 H 0 c 11.629,0 21.057,-9.428 21.057,-21.058 0,-11.629 -9.428,-21.057 -21.057,-21.057 v -0.007 h -47.57 v -0.082 c -5.759,-0.199 -10.371,-4.915 -10.371,-10.723 0,-5.89 4.741,-10.668 10.614,-10.737 v 0.061 H 0 c 23.497,0 42.545,19.048 42.545,42.545 C 42.545,-19.048 23.497,0 0,0"
           style="fill:#00b3ff;fill-opacity:1;fill-rule:nonzero;stroke:none"
           id="path926-7-6-0-5-3-6-9-8-7" />
      </g>
      <text
         xml:space="preserve"
         style="font-style:normal;font-variant:normal;font-weight:600;font-stretch:normal;font-size:41.1703px;line-height:1.25;font-family:'Antipasto Pro';-inkscape-font-specification:'Antipasto Pro, Semi-Bold';font-variant-ligatures:normal;font-variant-caps:normal;font-variant-numeric:normal;font-variant-east-asian:normal;fill:#00b3ff;fill-opacity:1;stroke:none;stroke-width:1.14224"
         x="209.15334"
         y="-60.763073"
         id="text2220-6-6-4-6-1-6-8-6"
         transform="scale(1,-1)"><tspan
           sodipodi:role="line"
           id="tspan2218-1-41-2-9-0-8-8-7"
           style="font-style:normal;font-variant:normal;font-weight:600;font-stretch:normal;font-size:43.0415px;font-family:'Antipasto Pro';-inkscape-font-specification:'Antipasto Pro, Semi-Bold';font-variant-ligatures:normal;font-variant-caps:normal;font-variant-numeric:normal;font-variant-east-asian:normal;fill:#00b3ff;fill-opacity:1;stroke-width:1.14224"
           x="209.15334"
           y="-60.763073">t</tspan></text>
      <g
         id="g928-7-9-1-1-4"
         transform="matrix(0.39946273,0,0,0.39946273,192.69833,40.69212)">
        <path
           d="m 0,0 c -23.053,0 -41.808,18.755 -41.808,41.808 0,4.172 3.383,7.556 7.557,7.556 4.173,0 7.556,-3.384 7.556,-7.556 0,-14.721 11.975,-26.696 26.695,-26.696 14.72,0 26.695,11.975 26.695,26.696 0,4.172 3.383,7.556 7.556,7.556 4.173,0 7.556,-3.384 7.556,-7.556 C 41.807,18.755 23.052,0 0,0"
           style="fill:#f9b233;fill-opacity:1;fill-rule:nonzero;stroke:none"
           id="path930-4-3-5-8-4" />
      </g>
    </g>
  </g>
</svg>
